<?xml version="1.0" encoding="iso-8859-1"?>
<!-- Generator: Adobe Illustrator 19.0.0, SVG Export Plug-In . SVG Version: 6.00 Build 0)  -->
<svg version="1.1" id="Layer_1" xmlns="http://www.w3.org/2000/svg" xmlns:xlink="http://www.w3.org/1999/xlink" x="0px" y="0px"
	 viewBox="0 0 512 512" style="enable-background:new 0 0 512 512;" xml:space="preserve">
<path style="fill:#11544F;" d="M385.984,512H126.016c-32.423,0-58.802-26.378-58.802-58.802V147.531
	c0-32.424,26.379-58.802,58.802-58.802h259.968c32.423,0,58.802,26.378,58.802,58.802v305.667
	C444.786,485.622,418.408,512,385.984,512z M126.016,115.995c-17.39,0-31.536,14.147-31.536,31.536v305.667
	c0,17.388,14.147,31.536,31.536,31.536h259.968c17.39,0,31.536-14.147,31.536-31.536V147.531c0-17.388-14.147-31.536-31.536-31.536
	H126.016z"/>
<path style="fill:#6AB797;" d="M324.645,61.705h-19.557c-0.556-26.642-22.311-48.073-49.087-48.073s-48.532,21.431-49.087,48.073
	h-19.557c-22.454,0-40.657,18.202-40.657,40.657l0,0c0,22.454,18.202,40.657,40.657,40.657h137.29
	c22.454,0,40.657-18.202,40.657-40.657l0,0C365.302,79.908,347.099,61.705,324.645,61.705z"/>
<g>
	<path style="fill:#11544F;" d="M324.645,156.653h-137.29c-29.936,0-54.289-24.355-54.289-54.289s24.353-54.289,54.289-54.289h7.668
		C201.707,20.602,226.707,0,256.001,0s54.292,20.602,60.977,48.073h7.668c29.936,0,54.289,24.355,54.289,54.289
		S354.581,156.653,324.645,156.653z M187.355,75.338c-14.902,0-27.024,12.124-27.024,27.024s12.122,27.025,27.024,27.025h137.29
		c14.902,0,27.024-12.124,27.024-27.024s-12.124-27.024-27.024-27.024h-19.559c-7.418,0-13.476-5.932-13.63-13.349
		c-0.398-19.148-16.305-34.725-35.456-34.725s-35.059,15.577-35.457,34.725c-0.154,7.416-6.212,13.349-13.63,13.349h-19.559V75.338z
		"/>
	<path style="fill:#11544F;" d="M342.67,238.164H169.331c-7.528,0-13.633-6.103-13.633-13.633c0-7.529,6.105-13.633,13.633-13.633
		H342.67c7.528,0,13.633,6.103,13.633,13.633C356.303,232.06,350.198,238.164,342.67,238.164z"/>
	<path style="fill:#11544F;" d="M342.67,324.835H169.331c-7.528,0-13.633-6.103-13.633-13.633s6.105-13.633,13.633-13.633H342.67
		c7.528,0,13.633,6.103,13.633,13.633S350.198,324.835,342.67,324.835z"/>
	<path style="fill:#11544F;" d="M342.67,411.507H169.331c-7.528,0-13.633-6.103-13.633-13.633s6.105-13.633,13.633-13.633H342.67
		c7.528,0,13.633,6.103,13.633,13.633S350.198,411.507,342.67,411.507z"/>
</g>
<g>
</g>
<g>
</g>
<g>
</g>
<g>
</g>
<g>
</g>
<g>
</g>
<g>
</g>
<g>
</g>
<g>
</g>
<g>
</g>
<g>
</g>
<g>
</g>
<g>
</g>
<g>
</g>
<g>
</g>
</svg>
